<svg width="1201" height="1267" viewBox="0 0 1201 1267" fill="none" xmlns="http://www.w3.org/2000/svg">
<path fill-rule="evenodd" clip-rule="evenodd" d="M1025.1 241.983C1259.42 476.299 1259.42 856.201 1025.1 1090.52C790.79 1324.83 410.899 1324.82 176.584 1090.5C-55.8988 858.021 -57.7317 482.225 171.114 247.5L418.208 0.334717L600.816 182.84L783.469 0.334717L1025.1 241.983ZM704.47 285.081L849.419 430.184C977.077 564.483 975.015 776.857 843.238 908.637C709.365 1042.51 492.312 1042.51 358.438 908.637C226.662 776.857 224.599 564.483 352.258 430.184L497.195 285.081L418.208 206.095L271.259 353.269C102.004 531.331 104.736 812.902 279.452 987.624C456.948 1165.12 744.728 1165.13 922.225 987.636C1099.72 810.14 1099.72 522.36 922.225 344.863L783.469 206.095L704.47 285.081ZM600.862 387.268L457.755 530.364C384.279 607.664 385.473 729.907 461.319 805.757C538.373 882.811 663.304 882.811 740.358 805.757C816.204 729.907 817.398 607.664 743.922 530.364L600.862 387.268Z" fill="#8C193C"/>
</svg>
